<svg width="219" height="33" viewBox="0 0 219 33" fill="none" xmlns="http://www.w3.org/2000/svg">
<g id="Final Logo">
<g id="Group 1000002520">
<g id="Type">
<g id="Type_2">
<path id="Vector" d="M205.373 26.7835V11.8471H208.895V13.6645H209.093C209.69 12.557 211.166 11.478 213.296 11.478C216.647 11.478 218.691 13.8349 218.691 17.0152V26.7835H215V17.9807C215 16.1634 213.835 14.9423 212.132 14.9423C210.343 14.9423 209.065 16.3621 209.065 18.2363V26.7835H205.373Z" fill="#050611"/>
<path id="Vector_2" d="M201.623 10.5177C200.288 10.5177 199.351 9.69418 199.351 8.35956C199.351 7.08174 200.288 6.22986 201.623 6.22986C202.957 6.22986 203.895 7.08174 203.895 8.35956C203.895 9.69418 202.957 10.5177 201.623 10.5177ZM199.777 26.7828V11.8465H203.469V26.7828H199.777Z" fill="#050611"/>
<path id="Vector_3" d="M185.022 27.1526C180.621 27.1526 177.497 23.8587 177.497 19.4005C177.497 14.6868 180.649 11.478 185.022 11.478C189.821 11.478 192.434 15.0275 192.434 19.2301V20.3944H181.075C181.189 22.6661 182.751 24.1994 185.136 24.1994C186.953 24.1994 188.345 23.3476 188.856 22.1265H192.292C191.553 25.1649 188.884 27.1526 185.022 27.1526ZM181.132 17.7819H188.913C188.742 15.7658 187.18 14.4312 185.022 14.4312C182.949 14.4312 181.359 15.9078 181.132 17.7819Z" fill="#050611"/>
<path id="Vector_4" d="M160.259 32.35V11.8471H163.894V13.7497H164.093C164.49 13.125 165.853 11.478 168.579 11.478C172.754 11.478 175.622 14.6016 175.622 19.2585C175.622 23.9155 172.782 27.1526 168.693 27.1526C166.052 27.1526 164.632 25.676 164.15 24.8526H163.951V32.35H160.259ZM167.87 23.8019C170.255 23.8019 171.873 21.9562 171.873 19.3153C171.873 16.5893 170.255 14.8287 167.841 14.8287C165.399 14.8287 163.866 16.7881 163.866 19.3153C163.866 22.0981 165.569 23.8019 167.87 23.8019Z" fill="#050611"/>
<path id="Vector_5" d="M133.725 27.1526C129.324 27.1526 126.2 23.8587 126.2 19.4005C126.2 14.6868 129.352 11.478 133.725 11.478C138.524 11.478 141.137 15.0275 141.137 19.2301V20.3944H129.778C129.892 22.6661 131.453 24.1994 133.839 24.1994C135.656 24.1994 137.047 23.3476 137.559 22.1265H140.995C140.256 25.1649 137.587 27.1526 133.725 27.1526ZM129.835 17.7819H137.615C137.445 15.7658 135.883 14.4312 133.725 14.4312C131.652 14.4312 130.062 15.9078 129.835 17.7819Z" fill="#050611"/>
<path id="Vector_6" d="M109.217 26.7828V23.2888L119.553 9.81194V9.60641H109.586V6.22986H124.267V9.69449L113.931 23.1713V23.4062H124.323V26.7828H109.217Z" fill="#050611"/>
<path id="Vector_7" d="M94.0161 26.7835V11.8471H97.5372V13.6645H97.736C98.3323 12.557 99.8089 11.478 101.939 11.478C105.289 11.478 107.334 13.8349 107.334 17.0152V26.7835H103.642V17.9807C103.642 16.1634 102.478 14.9423 100.774 14.9423C98.9854 14.9423 97.7076 16.3621 97.7076 18.2363V26.7835H94.0161Z" fill="#050611"/>
<path id="Vector_8" d="M84.7271 27.1526C80.3257 27.1526 77.2021 23.8587 77.2021 19.4005C77.2021 14.6868 80.3541 11.478 84.7271 11.478C89.526 11.478 92.1385 15.0275 92.1385 19.2301V20.3944H80.78C80.8936 22.6661 82.4554 24.1994 84.8407 24.1994C86.658 24.1994 88.0494 23.3476 88.5606 22.1265H91.9965C91.2582 25.1649 88.589 27.1526 84.7271 27.1526ZM80.8368 17.7819H88.6174C88.447 15.7658 86.8852 14.4312 84.7271 14.4312C82.6542 14.4312 81.064 15.9078 80.8368 17.7819Z" fill="#050611"/>
<path id="Vector_9" d="M59.9641 32.3286V11.795H63.5988V13.7497H63.7976C64.1951 13.125 65.5581 11.478 68.2842 11.478C72.4584 11.478 75.3264 14.6016 75.3264 19.2585C75.3264 23.9155 72.4868 27.1526 68.3977 27.1526C65.7569 27.1526 64.3371 25.676 63.8544 24.8526H63.6556V32.3286H59.9641ZM67.5742 23.8019C69.9595 23.8019 71.5781 21.9562 71.5781 19.3153C71.5781 16.5893 69.9595 14.8287 67.5459 14.8287C65.1038 14.8287 63.5704 16.7881 63.5704 19.3153C63.5704 22.0981 65.2742 23.8019 67.5742 23.8019Z" fill="#050611"/>
<path id="Vector_10" d="M47.2066 27.1524C40.9682 27.1524 36.3777 22.5913 36.3777 16.4706C36.3777 10.4087 40.9976 5.78876 47.236 5.78876C53.4745 5.78876 58.0944 10.4676 58.0944 16.4706C58.0944 22.5324 53.445 27.1524 47.2066 27.1524ZM47.236 23.4152C51.1792 23.4152 54.0041 20.4726 54.0041 16.4706C54.0041 12.5274 51.1792 9.52592 47.236 9.52592C43.2635 9.52592 40.4385 12.5274 40.4385 16.4706C40.4385 20.4726 43.2635 23.4152 47.236 23.4152Z" fill="#050611"/>
<rect id="Rectangle 11879" x="194.311" y="6.14328" width="3.58132" height="20.64" fill="#050611"/>
</g>
<path id="Vector_11" d="M143.014 32.3492V11.8464H146.649V13.7489H146.848C147.245 13.1242 148.608 11.4772 151.334 11.4772C155.508 11.4772 158.376 14.6008 158.376 19.2577C158.376 23.9147 155.537 27.1518 151.448 27.1518C148.807 27.1518 147.387 25.6752 146.904 24.8518H146.706V32.3492H143.014ZM150.624 23.8011C153.01 23.8011 154.628 21.9554 154.628 19.3145C154.628 16.5885 153.01 14.8279 150.596 14.8279C148.154 14.8279 146.62 16.7873 146.62 19.3145C146.62 22.0973 148.324 23.8011 150.624 23.8011Z" fill="#050611"/>
</g>
</g>
<path id="Vector_12" d="M5.10986 29.3846C7.96503 24.4445 10.3912 20.3704 13.4748 14.7866C14.5641 12.9024 16.4462 11.7316 18.7697 11.7316H22.4206L12.225 29.3846H5.10986Z" fill="#2E99FF"/>
<path id="Vector_13" d="M5.14185 3.66751H27.0488L23.3056 10.194H5.14185V3.66751Z" fill="#4F56FA"/>
<path id="Vector_14" d="M16.1154 25.3199C16.9392 23.8635 18.2635 22.9588 20.1182 22.9588L27.0533 22.9398V29.385H13.7651C14.5971 27.9582 15.3195 26.7269 16.1154 25.3199Z" fill="#09C2FF"/>
</g>
</svg>
