<svg width="219" height="33" viewBox="0 0 219 33" fill="none" xmlns="http://www.w3.org/2000/svg">
<g id="Final Logo">
<g id="Group 1000002520">
<g id="Type">
<g id="Type_2">
<path id="Vector" d="M205.374 26.7836V11.8472H208.895V13.6646H209.093C209.69 12.5571 211.166 11.4781 213.296 11.4781C216.647 11.4781 218.691 13.8349 218.691 17.0153V26.7836H215V17.9808C215 16.1634 213.836 14.9424 212.132 14.9424C210.343 14.9424 209.065 16.3622 209.065 18.2363V26.7836H205.374Z" fill="white"/>
<path id="Vector_2" d="M201.623 10.5177C200.288 10.5177 199.351 9.69424 199.351 8.35963C199.351 7.0818 200.288 6.22992 201.623 6.22992C202.958 6.22992 203.895 7.0818 203.895 8.35963C203.895 9.69424 202.958 10.5177 201.623 10.5177ZM199.777 26.7829V11.8465H203.469V26.7829H199.777Z" fill="white"/>
<path id="Vector_3" d="M185.022 27.1527C180.621 27.1527 177.497 23.8588 177.497 19.4006C177.497 14.6868 180.649 11.4781 185.022 11.4781C189.821 11.4781 192.434 15.0276 192.434 19.2302V20.3944H181.075C181.189 22.6661 182.751 24.1995 185.136 24.1995C186.953 24.1995 188.345 23.3476 188.856 22.1266H192.292C191.554 25.165 188.884 27.1527 185.022 27.1527ZM181.132 17.782H188.913C188.742 15.7659 187.181 14.4313 185.022 14.4313C182.95 14.4313 181.359 15.9078 181.132 17.782Z" fill="white"/>
<path id="Vector_4" d="M160.259 32.35V11.8472H163.894V13.7497H164.093C164.49 13.125 165.853 11.4781 168.579 11.4781C172.754 11.4781 175.622 14.6016 175.622 19.2586C175.622 23.9155 172.782 27.1527 168.693 27.1527C166.052 27.1527 164.632 25.6761 164.15 24.8526H163.951V32.35H160.259ZM167.87 23.802C170.255 23.802 171.873 21.9562 171.873 19.3154C171.873 16.5894 170.255 14.8288 167.841 14.8288C165.399 14.8288 163.866 16.7881 163.866 19.3154C163.866 22.0982 165.569 23.802 167.87 23.802Z" fill="white"/>
<path id="Vector_5" d="M133.725 27.1527C129.324 27.1527 126.2 23.8588 126.2 19.4006C126.2 14.6868 129.352 11.4781 133.725 11.4781C138.524 11.4781 141.137 15.0276 141.137 19.2302V20.3944H129.778C129.892 22.6661 131.454 24.1995 133.839 24.1995C135.656 24.1995 137.048 23.3476 137.559 22.1266H140.995C140.256 25.165 137.587 27.1527 133.725 27.1527ZM129.835 17.782H137.615C137.445 15.7659 135.883 14.4313 133.725 14.4313C131.652 14.4313 130.062 15.9078 129.835 17.782Z" fill="white"/>
<path id="Vector_6" d="M109.217 26.7828V23.2888L119.553 9.812V9.60647H109.586V6.22992H124.267V9.69455L113.931 23.1714V23.4063H124.324V26.7828H109.217Z" fill="white"/>
<path id="Vector_7" d="M94.0162 26.7836V11.8472H97.5373V13.6646H97.7361C98.3324 12.5571 99.809 11.4781 101.939 11.4781C105.289 11.4781 107.334 13.8349 107.334 17.0153V26.7836H103.642V17.9808C103.642 16.1634 102.478 14.9424 100.774 14.9424C98.9855 14.9424 97.7077 16.3622 97.7077 18.2363V26.7836H94.0162Z" fill="white"/>
<path id="Vector_8" d="M84.7272 27.1527C80.3259 27.1527 77.2023 23.8588 77.2023 19.4006C77.2023 14.6868 80.3543 11.4781 84.7272 11.4781C89.5262 11.4781 92.1386 15.0276 92.1386 19.2302V20.3944H80.7802C80.8938 22.6661 82.4556 24.1995 84.8408 24.1995C86.6582 24.1995 88.0496 23.3476 88.5607 22.1266H91.9966C91.2583 25.165 88.5891 27.1527 84.7272 27.1527ZM80.837 17.782H88.6175C88.4471 15.7659 86.8853 14.4313 84.7272 14.4313C82.6543 14.4313 81.0642 15.9078 80.837 17.782Z" fill="white"/>
<path id="Vector_9" d="M59.9642 32.3287V11.795H63.5988V13.7497H63.7976C64.1952 13.125 65.5582 11.4781 68.2842 11.4781C72.4584 11.4781 75.3264 14.6016 75.3264 19.2586C75.3264 23.9155 72.4868 27.1527 68.3978 27.1527C65.7569 27.1527 64.3371 25.6761 63.8544 24.8526H63.6556V32.3287H59.9642ZM67.5743 23.802C69.9596 23.802 71.5781 21.9562 71.5781 19.3154C71.5781 16.5894 69.9596 14.8288 67.5459 14.8288C65.1038 14.8288 63.5705 16.7881 63.5705 19.3154C63.5705 22.0982 65.2742 23.802 67.5743 23.802Z" fill="white"/>
<path id="Vector_10" d="M47.2067 27.1525C40.9683 27.1525 36.3778 22.5914 36.3778 16.4706C36.3778 10.4088 40.9977 5.78882 47.2361 5.78882C53.4745 5.78882 58.0945 10.4676 58.0945 16.4706C58.0945 22.5325 53.4451 27.1525 47.2067 27.1525ZM47.2361 23.4153C51.1793 23.4153 54.0042 20.4726 54.0042 16.4706C54.0042 12.5275 51.1793 9.52599 47.2361 9.52599C43.2635 9.52599 40.4386 12.5275 40.4386 16.4706C40.4386 20.4726 43.2635 23.4153 47.2361 23.4153Z" fill="white"/>
<rect id="Rectangle 11879" x="194.311" y="6.14334" width="3.58132" height="20.64" fill="white"/>
</g>
<path id="Vector_11" d="M143.014 32.3492V11.8464H146.649V13.749H146.848C147.245 13.1242 148.608 11.4773 151.334 11.4773C155.508 11.4773 158.376 14.6008 158.376 19.2578C158.376 23.9148 155.537 27.1519 151.448 27.1519C148.807 27.1519 147.387 25.6753 146.904 24.8518H146.706V32.3492H143.014ZM150.624 23.8012C153.01 23.8012 154.628 21.9554 154.628 19.3146C154.628 16.5886 153.01 14.828 150.596 14.828C148.154 14.828 146.621 16.7873 146.621 19.3146C146.621 22.0974 148.324 23.8012 150.624 23.8012Z" fill="white"/>
</g>
</g>
<path id="Vector_12" d="M5.10976 29.3846C7.96492 24.4446 10.3911 20.3705 13.4747 14.7867C14.564 12.9025 16.4461 11.7316 18.7696 11.7316H22.4205L12.2249 29.3846H5.10976Z" fill="#2E99FF"/>
<path id="Vector_13" d="M5.14192 3.66757H27.0489L23.3057 10.194H5.14192V3.66757Z" fill="#4F56FA"/>
<path id="Vector_14" d="M16.1154 25.3199C16.9392 23.8636 18.2634 22.9588 20.1181 22.9588L27.0532 22.9399V29.385H13.7651C14.597 27.9582 15.3194 26.727 16.1154 25.3199Z" fill="#09C2FF"/>
</g>
</svg>
